<?xml version="1.0" encoding="UTF-8"?>
<svg version="1.1" xmlns="http://www.w3.org/2000/svg" width="1024" height="1024">
<path d="M0 0 C9.40071003 4.78167604 12.39208866 14.78860248 16.32421875 23.9453125 C17.94367294 27.70157879 19.69633638 31.35848364 21.5625 35 C24.97887631 41.70766791 28.11529561 48.53172009 31.25 55.375 C34.75412888 63.01417278 38.29312451 70.61589206 42.10009766 78.10864258 C45.53251418 84.8824186 48.82760767 91.72231628 52.125 98.5625 C52.42970215 99.1943924 52.7344043 99.82628479 53.04833984 100.47732544 C56.94475584 108.56025312 60.8227139 116.65189937 64.6875 124.75 C70.76861586 137.48993207 76.93435394 150.18863435 83.10194397 162.88685608 C85.27773173 167.36692362 87.45070691 171.84834168 89.62132263 176.33091736 C91.09204135 179.3676726 92.56409076 182.40378215 94.03610229 185.43991089 C95.11539721 187.66767893 96.19262558 189.8964383 97.26977539 192.12524414 C100.38498371 198.55975239 103.52805221 204.969995 106.828125 211.3125 C107.34914795 212.32030518 107.8701709 213.32811035 108.40698242 214.36645508 C109.3458893 216.17072399 110.29797509 217.96823441 111.2668457 219.7565918 C113.97527743 224.96766361 114.9773442 228.6122932 114.3125 234.5 C110.97754799 239.14872099 107.75431193 240.23423454 102.3125 241.5 C98.72868347 241.72705078 98.72868347 241.72705078 94.88354492 241.6953125 C94.17682144 241.69239197 93.47009796 241.68947144 92.74195862 241.6864624 C91.21912488 241.67889773 89.6963083 241.66671529 88.17354393 241.65032959 C85.75484573 241.62459437 83.33636939 241.61171795 80.91755676 241.60205078 C74.90982598 241.57543338 68.90230677 241.52710049 62.89471436 241.47924805 C57.81321169 241.43958521 52.73178945 241.40838518 47.65017128 241.38812256 C45.2827608 241.37528359 42.91568764 241.35026801 40.54838562 241.32470703 C27.32551492 240.82433348 27.32551492 240.82433348 15.41699219 245.56860352 C12.72100203 249.32391138 11.19618908 253.07097776 9.640625 257.40234375 C9.31689911 258.26834702 8.99317322 259.13435028 8.65963745 260.02659607 C7.97115688 261.87245632 7.28872344 263.72058163 6.61187744 265.57073975 C5.20304222 269.41949106 3.76280068 273.25622702 2.32437134 277.09399414 C1.27469915 279.89632366 0.22953518 282.70030696 -0.81542969 285.50439453 C-13.49967358 319.44741848 -29.95128831 349.0369136 -53.6875 376.5 C-54.6465625 377.61181641 -54.6465625 377.61181641 -55.625 378.74609375 C-57.30112626 380.67441493 -58.99268488 382.5880962 -60.6875 384.5 C-61.39519531 385.31210937 -62.10289062 386.12421875 -62.83203125 386.9609375 C-67.4908822 392.24678883 -72.27242248 397.00191422 -77.6875 401.5 C-78.52410156 402.22445313 -79.36070312 402.94890625 -80.22265625 403.6953125 C-100.24516942 420.8259909 -123.90576575 439.62969045 -151.390625 439.66796875 C-152.64646393 439.67296135 -152.64646393 439.67296135 -153.92767334 439.67805481 C-155.69608005 439.6831057 -157.46449624 439.6854637 -159.23291016 439.68530273 C-161.91455138 439.68748136 -164.59577563 439.70563485 -167.27734375 439.72460938 C-169.00260277 439.7275454 -170.72786373 439.7295288 -172.453125 439.73046875 C-173.63953583 439.74124702 -173.63953583 439.74124702 -174.84991455 439.75224304 C-181.28567987 439.7263259 -188.11348158 439.52244304 -193.3125 435.4375 C-196.62670305 428.35715712 -192.63569113 419.46258246 -190.29296875 412.4765625 C-189.94963501 411.43007538 -189.60630127 410.38358826 -189.25256348 409.3053894 C-188.13549317 405.90895537 -187.00558297 402.51695746 -185.875 399.125 C-185.09491501 396.76385153 -184.31537813 394.4025219 -183.53637695 392.04101562 C-178.5358763 376.91462291 -173.42721041 361.82668356 -168.22187805 346.7696991 C-164.97969621 337.38840298 -161.81927525 327.98118489 -158.6875 318.5625 C-158.31955826 317.45637863 -158.31955826 317.45637863 -157.94418335 316.32791138 C-156.18981326 311.05265163 -154.43848884 305.77638282 -152.6875 300.5 C-150.78397403 294.76495146 -148.87904147 289.03037438 -146.97167969 283.29660034 C-146.21162647 281.01008127 -145.45341233 278.72295833 -144.6953125 276.43579102 C-144.22431376 275.01827378 -143.75297022 273.60087105 -143.28125 272.18359375 C-143.05800552 271.51254608 -142.83476105 270.84149841 -142.60475159 270.15011597 C-140.97953277 265.29638166 -139.24166049 260.49299205 -137.41186523 255.71289062 C-136.3604002 252.5007305 -136.21132422 249.83323044 -136.6875 246.5 C-138.44765131 243.3149643 -139.18640916 242.66703028 -142.6875 241.5 C-150.63344939 240.72511812 -157.92972545 242.43957208 -165.59765625 244.34375 C-166.80514023 244.63229858 -168.01262421 244.92084717 -169.25669861 245.21813965 C-173.09045553 246.13478268 -176.92050621 247.06571831 -180.75 248 C-185.80064302 249.23050066 -190.85435937 250.44712437 -195.91015625 251.65625 C-197.63082054 252.0827887 -197.63082054 252.0827887 -199.38624573 252.51794434 C-205.64814763 254.01562463 -211.24467532 255.00104124 -217.6875 254.5 C-221.60871572 251.93920606 -222.49453083 250.37578316 -223.5 245.8125 C-223.09250537 239.77931569 -218.57487359 235.75667408 -214.6875 231.5 C-213.58921875 230.27603516 -213.58921875 230.27603516 -212.46875 229.02734375 C-210.97500734 227.36792189 -209.4762006 225.71304611 -207.97265625 224.0625 C-204.0552111 219.66960424 -200.38328038 215.07941373 -196.6875 210.5 C-191.2682492 203.80737333 -185.75066154 197.21520314 -180.12963867 190.69213867 C-177.09830704 187.16739047 -174.11779214 183.60978017 -171.1875 180 C-166.80037098 174.59923828 -162.27526588 169.325323 -157.73828125 164.05078125 C-150.78995941 155.97200476 -143.92278564 147.83100348 -137.19140625 139.5703125 C-129.35726564 129.9640184 -121.4821641 120.39459128 -113.4453125 110.95703125 C-110.841234 107.89069029 -108.30262581 104.78434712 -105.8125 101.625 C-101.87283681 96.64986065 -97.71092002 91.88321186 -93.54003906 87.10253906 C-89.57998868 82.55479424 -85.72884846 77.93271103 -81.93359375 73.24609375 C-79.36859696 70.11010637 -76.75096352 67.02241329 -74.125 63.9375 C-70.93827657 60.19152982 -67.79958664 56.42193538 -64.75 52.5625 C-60.9953448 47.82099497 -57.06080661 43.24933414 -53.10961914 38.67211914 C-49.58025041 34.5724374 -46.18011008 30.39084848 -42.828125 26.14453125 C-39.60278333 22.15993944 -36.25192039 18.28513576 -32.8984375 14.40820312 C-32.41117188 13.84423828 -31.92390625 13.28027344 -31.421875 12.69921875 C-30.71695923 11.88445068 -30.71695923 11.88445068 -29.99780273 11.05322266 C-28.81758391 9.65420045 -27.69571705 8.20645007 -26.58203125 6.75390625 C-24.71700376 4.53510035 -23.10205909 3.22000809 -20.625 1.75 C-19.95339844 1.34265625 -19.28179688 0.9353125 -18.58984375 0.515625 C-12.64846354 -2.65636443 -6.18245306 -2.37464779 0 0 Z " fill="#14889F" transform="translate(605.6875,258.5)"/>
<path d="M0 0 C2.08284459 -0.03678216 4.15898121 -0.0226803 6.24185181 0.01068115 C6.99553543 0.02243378 7.74921906 0.0341864 8.52574158 0.04629517 C10.10476408 0.07480133 11.68372527 0.10691667 13.26260376 0.14251709 C14.8711485 0.17452143 16.47994604 0.19561097 18.08877563 0.20599365 C20.43253475 0.22124536 22.77371726 0.26858915 25.11685181 0.32318115 C26.18887093 0.32198776 26.18887093 0.32198776 27.282547 0.32077026 C31.1094405 0.45052646 32.87902139 0.98720544 35.93936157 3.35296631 C38.55709701 6.8322151 38.60271114 8.3847785 38.35708618 12.56732178 C37.66495492 17.15403618 36.23975476 21.44090534 34.73013306 25.81536865 C34.08072444 27.75514797 33.43228286 29.69525132 32.78482056 31.63568115 C32.4712561 32.56541748 32.15769165 33.49515381 31.83462524 34.45306396 C31.09749442 36.7065782 30.42414516 38.95815759 29.80044556 41.24505615 C29.48849243 42.38200928 29.17653931 43.5189624 28.85513306 44.69036865 C28.48001587 46.13282959 28.48001587 46.13282959 28.09732056 47.60443115 C26.57564961 50.95636365 25.16443108 52.19871119 21.98013306 54.06536865 C14.27626082 55.61573298 6.30593513 55.17712441 -1.52328491 54.98822021 C-3.02797518 54.95617074 -4.53293751 54.93511176 -6.03793335 54.92474365 C-8.23617299 54.90948803 -10.43166836 54.86215757 -12.62924194 54.80755615 C-13.92829468 54.78548096 -15.22734741 54.76340576 -16.56576538 54.74066162 C-20.97672086 53.87829925 -22.47290474 52.75645019 -25.01986694 49.06536865 C-25.68718631 43.2847843 -24.5964592 38.34649098 -23.00814819 32.8036499 C-22.69299507 31.67312447 -22.69299507 31.67312447 -22.37147522 30.51976013 C-21.92705157 28.93928334 -21.4771709 27.36033168 -21.02206421 25.78289795 C-20.33267392 23.37893912 -19.67264241 20.96814444 -19.01400757 18.55560303 C-18.57631283 17.01278538 -18.13691708 15.47044909 -17.69564819 13.9286499 C-17.40625114 12.85663078 -17.40625114 12.85663078 -17.11100769 11.76295471 C-15.69617452 6.98717527 -14.06020974 4.01927954 -10.01986694 1.06536865 C-6.55925435 0.32779902 -3.50448997 0.11341529 0 0 Z " fill="#17607B" transform="translate(307.0198669433594,700.9346313476563)"/>
<path d="M0 0 C1.13333519 -0.00642769 1.13333519 -0.00642769 2.28956604 -0.01298523 C3.88224285 -0.01870951 5.4749458 -0.01924285 7.06762695 -0.01489258 C9.49280774 -0.01173321 11.91676671 -0.03521184 14.34179688 -0.06054688 C15.89452972 -0.06282028 17.44726583 -0.06352317 19 -0.0625 C19.71892929 -0.07170975 20.43785858 -0.08091949 21.17857361 -0.09040833 C25.87299762 -0.04766735 29.07838751 0.82720953 33.06640625 3.30078125 C34.81509858 5.70523321 35.18643281 7.30238984 34.83154297 10.25439453 C33.41219691 17.35714537 31.43223638 24.25409168 29.29003906 31.1706543 C28.68808326 33.12406471 28.10367874 35.08221671 27.51953125 37.04101562 C26.94332031 38.91176758 26.94332031 38.91176758 26.35546875 40.8203125 C26.01209473 41.94542236 25.6687207 43.07053223 25.31494141 44.22973633 C23.6992106 48.20397916 22.01759305 51.4566412 17.9519043 53.21557617 C10.91478985 54.36699587 4.00439756 54.63369813 -3.12109375 54.61328125 C-4.25740234 54.62939453 -5.39371094 54.64550781 -6.56445312 54.66210938 C-12.7920914 54.66574065 -17.47609403 54.40317736 -22.93359375 51.30078125 C-24.93359375 49.30078125 -24.93359375 49.30078125 -25.36328125 45.72265625 C-25.18909159 38.08887067 -22.34687013 30.76692904 -20.05859375 23.55078125 C-19.59263853 22.04461423 -19.12778582 20.53810568 -18.6640625 19.03125 C-17.44932942 15.11076554 -16.22510477 11.19679361 -14.93359375 7.30078125 C-14.65757324 6.36459961 -14.38155273 5.42841797 -14.09716797 4.46386719 C-12.93359375 2.30078125 -12.93359375 2.30078125 -10.80444336 1.00708008 C-7.18401624 0.11636695 -3.70491809 -0.00468364 0 0 Z " fill="#15A4B6" transform="translate(382.93359375,701.69921875)"/>
<path d="M0 0 C0.97195313 0.165 1.94390625 0.33 2.9453125 0.5 C7.27030339 1.11754521 11.51551051 1.06804519 15.875 1 C32.32791076 0.91314199 32.32791076 0.91314199 36.5 3.625 C39.21272791 7.92015253 39.20664764 11.93006229 38.2590332 16.83642578 C37.87133976 18.21039275 37.46784694 19.57997458 37.05078125 20.9453125 C36.83689255 21.67821503 36.62300385 22.41111755 36.40263367 23.16622925 C35.94949086 24.70610859 35.48939409 26.24395699 35.02270508 27.77978516 C34.31400466 30.12003136 33.63314291 32.46712419 32.95507812 34.81640625 C32.50945124 36.31819557 32.06223844 37.8195154 31.61328125 39.3203125 C31.41205154 40.01625519 31.21082184 40.71219788 31.00349426 41.42922974 C29.68629488 45.69425089 28.06343518 48.74784044 25 52 C20.67152136 54.16423932 14.94996477 53.45283221 10.1875 53.625 C9.01767578 53.6765625 7.84785156 53.728125 6.64257812 53.78125 C-14.4719559 54.57406519 -14.4719559 54.57406519 -20.3125 50.9375 C-22.90459312 46.42533791 -22.53147838 42.28660283 -21.38549805 37.35620117 C-20.54150208 34.425455 -19.63084286 31.52525733 -18.6875 28.625 C-18.06628286 26.65889315 -17.44518812 24.69274762 -16.82421875 22.7265625 C-16.51661621 21.77297852 -16.20901367 20.81939453 -15.89208984 19.83691406 C-14.7813568 16.30469787 -13.78735991 12.74328773 -12.81958008 9.16943359 C-11.88625423 6.69891424 -10.7455072 4.97640895 -9 3 C-6.73828125 2.390625 -6.73828125 2.390625 -4.3125 2.25 C-3.50425781 2.19328125 -2.69601562 2.1365625 -1.86328125 2.078125 C-1.24839844 2.05234375 -0.63351562 2.0265625 0 2 C0 1.34 0 0.68 0 0 Z " fill="#165D78" transform="translate(368,616)"/>
<path d="M0 0 C0.99 0.495 0.99 0.495 2 1 C1.443125 1.60585938 0.88625 2.21171875 0.3125 2.8359375 C-10.07305517 14.05123635 -10.07305517 14.05123635 -18 27 C-20.0625 29.375 -20.0625 29.375 -22 31 C-22.66 31 -23.32 31 -24 31 C-24.226875 31.7425 -24.45375 32.485 -24.6875 33.25 C-26 36 -26 36 -28.3125 37.8125 C-31.42061222 40.34235879 -32.94837678 42.93065301 -34.88671875 46.390625 C-35.43779297 47.18726563 -35.43779297 47.18726563 -36 48 C-36.66 48 -37.32 48 -38 48 C-38.4021875 49.175625 -38.4021875 49.175625 -38.8125 50.375 C-40 53 -40 53 -43 55 C-43.185625 55.9590625 -43.185625 55.9590625 -43.375 56.9375 C-44.29021538 59.95771075 -46.34667733 60.44683551 -49 62 C-50.32793606 64.06700655 -50.32793606 64.06700655 -51 66 C-51.66 66 -52.32 66 -53 66 C-53.0825 66.721875 -53.165 67.44375 -53.25 68.1875 C-54.55169252 73.06884696 -57.78855992 76.33275462 -62 79 C-62.66 79 -63.32 79 -64 79 C-64.04125 79.556875 -64.0825 80.11375 -64.125 80.6875 C-65.22351046 83.59070621 -67.02816557 84.707712 -69.43359375 86.5625 C-72.0572203 88.97021713 -73.39275856 91.8473341 -75 95 C-75.66 95 -76.32 95 -77 95 C-77.06316406 95.54140625 -77.12632812 96.0828125 -77.19140625 96.640625 C-78.33887064 99.98878197 -80.56335736 102.21269749 -82.9375 104.75 C-83.39318359 105.25660156 -83.84886719 105.76320313 -84.31835938 106.28515625 C-85.49906703 107.56785768 -86.74551812 108.78935193 -88 110 C-88.66 110 -89.32 110 -90 110 C-90.09539062 110.56203125 -90.19078125 111.1240625 -90.2890625 111.703125 C-91.17047733 114.5507729 -92.55268978 116.39714376 -94.375 118.75 C-94.98085938 119.54921875 -95.58671875 120.3484375 -96.2109375 121.171875 C-96.80132812 121.77515625 -97.39171875 122.3784375 -98 123 C-98.99 123 -99.98 123 -101 123 C-101.2475 123.721875 -101.495 124.44375 -101.75 125.1875 C-103.47315664 129.06460244 -105.61596476 131.99342892 -109.0625 134.5 C-111.43891419 136.33980453 -112.50600732 138.41946718 -114 141 C-114.66 141.33 -115.32 141.66 -116 142 C-116.495 142.845625 -116.99 143.69125 -117.5 144.5625 C-117.995 145.366875 -118.49 146.17125 -119 147 C-119.66 147 -120.32 147 -121 147 C-121.0928125 147.75023437 -121.185625 148.50046875 -121.28125 149.2734375 C-122.11917471 152.45208665 -123.08468651 153.44930094 -125.5 155.625 C-132.02332488 161.83097394 -138.44783363 168.62620453 -142 177 C-141.28739821 179.19718884 -140.61450567 180.38549433 -139 182 C-133.89577062 183.10091222 -130.83431557 182.85144 -126 181 C-124.00080745 180.66185764 -122.00062373 180.32956911 -120 180 C-117.0525493 179.37511113 -114.12028586 178.69006726 -111.1875 178 C-110.02444336 177.73316406 -110.02444336 177.73316406 -108.83789062 177.4609375 C-105.11449231 176.85514343 -105.11449231 176.85514343 -102 175 C-100 175 -98 175 -96 175 C-95.67 174.67 -95.34 174.34 -95 174 C-91.90573033 173.42432192 -88.79948781 172.96973401 -85.6875 172.5 C-83.09043376 172.27904792 -83.09043376 172.27904792 -82 171 C-75.64462582 169.46979567 -69.52264091 168.75386261 -63 169 C-62.67 169.99 -62.34 170.98 -62 172 C-61.360625 172.309375 -60.72125 172.61875 -60.0625 172.9375 C-57.40895821 174.30447607 -56.91748791 175.17107896 -56 178 C-54.92238227 185.23543336 -58.23467654 191.43235678 -61 198 C-61.33 198 -61.66 198 -62 198 C-61.58048747 194.50406223 -61.11577272 191.32688767 -59.9375 188 C-58.82948966 184.45436693 -58.65778014 181.69597449 -59 178 C-60.76015131 174.8149643 -61.49890916 174.16703028 -65 173 C-72.94594939 172.22511812 -80.24222545 173.93957208 -87.91015625 175.84375 C-89.11764023 176.13229858 -90.32512421 176.42084717 -91.56919861 176.71813965 C-95.40295553 177.63478268 -99.23300621 178.56571831 -103.0625 179.5 C-108.11314302 180.73050066 -113.16685937 181.94712437 -118.22265625 183.15625 C-119.94332054 183.5827887 -119.94332054 183.5827887 -121.69874573 184.01794434 C-127.96064763 185.51562463 -133.55717532 186.50104124 -140 186 C-143.92121572 183.43920606 -144.80703083 181.87578316 -145.8125 177.3125 C-145.40500537 171.27931569 -140.88737359 167.25667408 -137 163 C-135.90171875 161.77603516 -135.90171875 161.77603516 -134.78125 160.52734375 C-133.28750734 158.86792189 -131.7887006 157.21304611 -130.28515625 155.5625 C-126.3677111 151.16960424 -122.69578038 146.57941373 -119 142 C-113.5807492 135.30737333 -108.06316154 128.71520314 -102.44213867 122.19213867 C-99.41080704 118.66739047 -96.43029214 115.10978017 -93.5 111.5 C-89.11287098 106.09923828 -84.58776588 100.825323 -80.05078125 95.55078125 C-73.10245941 87.47200476 -66.23528564 79.33100348 -59.50390625 71.0703125 C-51.66976564 61.4640184 -43.7946641 51.89459128 -35.7578125 42.45703125 C-33.153734 39.39069029 -30.61512581 36.28434712 -28.125 33.125 C-24.19182816 28.15805814 -20.03817933 23.39792705 -15.87231445 18.62670898 C-11.71435791 13.85451577 -7.67838197 9.00340916 -3.70703125 4.07421875 C-2 2 -2 2 0 0 Z " fill="#15465D" transform="translate(528,327)"/>
<path d="M0 0 C3.85087939 2.76353889 5.89040764 5.07489829 7.8828125 9.36328125 C8.40069336 10.45842041 8.91857422 11.55355957 9.45214844 12.68188477 C10.00418945 13.87998779 10.55623047 15.07809082 11.125 16.3125 C11.72276853 17.58396547 12.32209567 18.85469916 12.92285156 20.12475586 C13.89347633 22.17706183 14.86313687 24.22976984 15.82849121 26.28456116 C19.64342248 34.40051647 23.57509798 42.45912981 27.50906372 50.5178833 C28.74520608 53.05266978 29.97740464 55.58934038 31.20874023 58.12646484 C34.55034549 65.00296233 37.89826748 71.86874071 41.43359375 78.6484375 C41.91151367 79.57003662 42.38943359 80.49163574 42.88183594 81.44116211 C43.71034521 83.0252136 44.55197394 84.60252678 45.41113281 86.17016602 C47.94742592 91.01981322 48.54777484 94.51642422 48 100 C44.66459785 104.64934845 41.43975996 105.7274717 36 107 C32.50074768 107.24050903 32.50074768 107.24050903 28.77954102 107.22705078 C28.09576889 107.22734283 27.41199677 107.22763489 26.70750427 107.22793579 C24.47283735 107.22655503 22.2385141 107.21105393 20.00390625 107.1953125 C18.44449546 107.19157789 16.88508232 107.18873304 15.32566833 107.18673706 C11.24038099 107.17913582 7.15523801 107.15951786 3.07000732 107.1373291 C-1.10630338 107.1167947 -5.28263763 107.10771917 -9.45898438 107.09765625 C-17.63938884 107.07626833 -25.81967641 107.04217524 -34 107 C-34 106.67 -34 106.34 -34 106 C-32.84213989 105.970271 -32.84213989 105.970271 -31.66088867 105.93994141 C-28.16941042 105.84478857 -24.67853848 105.73506953 -21.1875 105.625 C-19.36508789 105.57859375 -19.36508789 105.57859375 -17.50585938 105.53125 C-16.34248047 105.49257813 -15.17910156 105.45390625 -13.98046875 105.4140625 C-12.90692139 105.3826416 -11.83337402 105.3512207 -10.72729492 105.31884766 C-7.7839235 105.18407693 -7.7839235 105.18407693 -5 103 C-1.86328125 102.8046875 -1.86328125 102.8046875 1.6875 102.875 C2.86699219 102.89304687 4.04648437 102.91109375 5.26171875 102.9296875 C6.16535156 102.95289063 7.06898438 102.97609375 8 103 C8 103.66 8 104.32 8 105 C25.52260694 104.35718742 25.52260694 104.35718742 43 103 C44.48258675 95.28087985 43.67103487 90.83192594 40 84 C39.38261034 82.768979 38.76969395 81.53570898 38.16015625 80.30078125 C35.65049801 75.2207769 33.09638754 70.16353809 30.53515625 65.109375 C26.61045684 57.32823182 22.86226756 49.46550772 19.12255859 41.59423828 C17.03927389 37.21912541 14.94813152 32.85381084 12.734375 28.54296875 C12.40493896 27.90085449 12.07550293 27.25874023 11.73608398 26.59716797 C10.87972075 24.94239259 10.01257701 23.29320833 9.14453125 21.64453125 C8 19 8 19 8 15 C7.34 15 6.68 15 6 15 C4.99539469 12.87717331 3.99644398 10.75166979 3 8.625 C2.443125 7.44164062 1.88625 6.25828125 1.3125 5.0390625 C0 2 0 2 0 0 Z " fill="#19BAC2" transform="translate(672,393)"/>
<path d="M0 0 C1.1218098 3.36542939 0.88125902 4.15100362 -0.14453125 7.421875 C-0.40943359 8.28296875 -0.67433594 9.1440625 -0.94726562 10.03125 C-1.23279297 10.9284375 -1.51832031 11.825625 -1.8125 12.75 C-2.361 14.51552471 -2.90918291 16.28114797 -3.45703125 18.046875 C-3.72386719 18.89435303 -3.99070312 19.74183105 -4.265625 20.61499023 C-4.90011455 22.67560473 -5.48060828 24.75270158 -6.05078125 26.83203125 C-6.92554229 29.75150121 -7.99681672 32.22941375 -9.375 34.9375 C-11.89826615 40.30409261 -13.34416842 45.67498163 -14.65576172 51.42944336 C-15.49636485 55.10993426 -16.48350948 58.53946217 -18 62 C-18.66 62 -19.32 62 -20 62 C-20.12375 62.78375 -20.2475 63.5675 -20.375 64.375 C-20.88201601 67.31569289 -21.39198874 70.2537662 -21.9375 73.1875 C-22.09089844 74.02667969 -22.24429687 74.86585938 -22.40234375 75.73046875 C-23 78 -23 78 -25 81 C-25.50776548 82.88319614 -25.96016016 84.78167698 -26.375 86.6875 C-27.43880477 91.15654918 -28.76689688 94.8018195 -30.9609375 98.8046875 C-32.76993574 102.62670635 -33.81541924 106.69612668 -34.97265625 110.75390625 C-35.8824643 113.62862294 -36.98347445 116.31911326 -38.19946289 119.07446289 C-39.74235566 122.78559289 -40.9412747 126.6188195 -42.1875 130.4375 C-42.46013672 131.26443359 -42.73277344 132.09136719 -43.01367188 132.94335938 C-43.67855197 134.96132879 -44.33966791 136.98053778 -45 139 C-45.33 139 -45.66 139 -46 139 C-45.45121792 133.5524257 -44.46503952 128.78857566 -42.69921875 123.57421875 C-42.46709183 122.8821785 -42.2349649 122.19013824 -41.99580383 121.47712708 C-41.23367045 119.21137822 -40.46071396 116.94948891 -39.6875 114.6875 C-39.1445848 113.08093096 -38.6022779 111.47415623 -38.06054688 109.8671875 C-36.38530503 104.90747588 -34.6948756 99.95303205 -33 95 C-32.74075745 94.24221252 -32.48151489 93.48442505 -32.2144165 92.70367432 C-29.98603083 86.19290805 -27.75239124 79.68395421 -25.51147461 73.17749023 C-21.85687956 62.55709988 -18.28831721 51.90963553 -14.75 41.25 C-11.31927319 30.92054856 -7.87258285 20.59827953 -4.3125 10.3125 C-3.98540039 9.36213867 -3.65830078 8.41177734 -3.32128906 7.43261719 C-3.02577148 6.58473633 -2.73025391 5.73685547 -2.42578125 4.86328125 C-2.17223877 4.13407471 -1.91869629 3.40486816 -1.6574707 2.65356445 C-1 1 -1 1 0 0 Z " fill="#16566C" transform="translate(465,526)"/>
<path d="M0 0 C9.40071003 4.78167604 12.39208866 14.78860248 16.32421875 23.9453125 C17.94367294 27.70157879 19.69633638 31.35848364 21.5625 35 C25.12089688 42.01702563 28.48069626 49.12283721 31.8125 56.25 C32.36583008 57.41853516 32.91916016 58.58707031 33.48925781 59.79101562 C33.99811523 60.88607422 34.50697266 61.98113281 35.03125 63.109375 C35.49466797 64.09905273 35.95808594 65.08873047 36.43554688 66.10839844 C36.86963867 67.29224121 36.86963867 67.29224121 37.3125 68.5 C36.9825 69.16 36.6525 69.82 36.3125 70.5 C30.54066461 59.02540703 24.89364435 47.49558485 19.3125 35.92724609 C18.8175 34.90171631 18.8175 34.90171631 18.3125 33.85546875 C17.8175 32.82957642 17.8175 32.82957642 17.3125 31.78295898 C16.64915217 30.41367043 15.98251488 29.04597027 15.3125 27.67993164 C13.58619728 24.15947105 11.91197607 20.6269523 10.3125 17.046875 C9.64589435 15.60413847 8.97922963 14.16142924 8.3125 12.71875 C8.02890625 12.05290894 7.7453125 11.38706787 7.453125 10.7010498 C4.98729313 5.46690258 1.69369473 3.44739506 -3.6875 1.5 C-9.51919887 0.3281238 -15.58416857 1.49086434 -20.6875 4.5 C-26.31664201 9.07507956 -30.75645542 14.89365204 -35.27734375 20.5234375 C-37.82172279 23.66576623 -40.43447594 26.74036169 -43.0625 29.8125 C-47.47644894 34.98999751 -51.72445578 40.28108894 -55.89599609 45.65551758 C-58.01499283 48.38425986 -60.15736468 51.07963172 -62.3828125 53.72265625 C-64.73758595 56.46195741 -64.73758595 56.46195741 -66.6875 59.5 C-67.3475 59.5 -68.0075 59.5 -68.6875 59.5 C-68.914375 60.0775 -69.14125 60.655 -69.375 61.25 C-71.01788023 64.0663661 -73.08283227 65.58077114 -75.6875 67.5 C-73.96533652 63.50458074 -71.3099162 60.25492175 -68.625 56.875 C-68.13257813 56.25109375 -67.64015625 55.6271875 -67.1328125 54.984375 C-63.58898816 50.53399095 -59.85426573 46.30963137 -56 42.125 C-53.25979806 39.0145005 -50.72299315 35.77774892 -48.1875 32.5 C-44.27736624 27.4474354 -40.2143996 22.63701186 -35.87109375 17.9453125 C-33.49334867 15.2825783 -31.32026976 12.50194841 -29.125 9.6875 C-21.56244559 0.32370671 -11.83103133 -4.54423707 0 0 Z " fill="#196B7E" transform="translate(605.6875,258.5)"/>
<path d="M0 0 C4.87464091 -0.07443657 9.74894728 -0.12873667 14.62402344 -0.16479492 C16.28065763 -0.17983465 17.93725231 -0.20027177 19.59375 -0.22631836 C21.9818703 -0.26291515 24.36946188 -0.27977439 26.7578125 -0.29296875 C27.85973434 -0.31619453 27.85973434 -0.31619453 28.98391724 -0.33988953 C33.74247375 -0.34142929 36.96266895 0.47829266 41 3 C42.74869233 5.40445196 43.12002656 7.00160859 42.76513672 9.95361328 C41.34579066 17.05636412 39.36583013 23.95331043 37.22363281 30.86987305 C36.62167701 32.82328346 36.03727249 34.78143546 35.453125 36.74023438 C34.87691406 38.61098633 34.87691406 38.61098633 34.2890625 40.51953125 C33.94568848 41.64464111 33.60231445 42.76975098 33.24853516 43.92895508 C31.63280435 47.90319791 29.9511868 51.15585995 25.88549805 52.91479492 C18.8483836 54.06621462 11.93799131 54.33291688 4.8125 54.3125 C3.67619141 54.32861328 2.53988281 54.34472656 1.36914062 54.36132812 C-4.85849765 54.3649594 -9.54250028 54.10239611 -15 51 C-17.36281649 48.63718351 -17.29567658 48.09388178 -17.3125 44.875 C-17.22634465 40.04246792 -15.92272098 36.40623557 -14 32 C-13.67 32 -13.34 32 -13 32 C-13.10699219 33.20398438 -13.21398437 34.40796875 -13.32421875 35.6484375 C-13.44612918 37.22389535 -13.56717838 38.79942001 -13.6875 40.375 C-13.76033203 41.1690625 -13.83316406 41.963125 -13.90820312 42.78125 C-14.12839777 45.35167167 -14.12839777 45.35167167 -14 49 C-10.25860281 51.4942648 -7.30607247 51.30598191 -2.97265625 51.30078125 C-1.79466713 51.30720894 -1.79466713 51.30720894 -0.59288025 51.31376648 C1.06722042 51.31950642 2.72734625 51.3200125 4.38745117 51.31567383 C6.92475399 51.31251586 9.46088839 51.33596885 11.99804688 51.36132812 C13.6119777 51.36360139 15.22591165 51.36430449 16.83984375 51.36328125 C17.5972435 51.372491 18.35464325 51.38170074 19.13499451 51.39118958 C22.28148727 51.36361516 24.60984349 51.20679478 27.41455078 49.72021484 C29.14395201 47.84381185 29.81398405 46.55028005 30.52734375 44.11328125 C30.7598584 43.34741699 30.99237305 42.58155273 31.23193359 41.79248047 C31.46477051 40.97408691 31.69760742 40.15569336 31.9375 39.3125 C32.44873235 37.59230329 32.96045943 35.87225354 33.47265625 34.15234375 C33.72547363 33.28851074 33.97829102 32.42467773 34.23876953 31.53466797 C34.94778628 29.17385596 35.70632704 26.83875523 36.49609375 24.50390625 C38.83216779 17.55138183 40.66364045 11.43277306 40 4 C36.13676662 2.71225554 32.42509463 2.76617207 28.39453125 2.68359375 C27.13572395 2.6524221 27.13572395 2.6524221 25.85148621 2.62062073 C23.17190706 2.55525982 20.49223031 2.49630286 17.8125 2.4375 C15.99543263 2.39430198 14.17837512 2.35068727 12.36132812 2.30664062 C7.90765201 2.1995922 3.45387774 2.09828681 -1 2 C-0.67 1.34 -0.34 0.68 0 0 Z " fill="#1D8695" transform="translate(375,702)"/>
<path d="M0 0 C0.99 0.495 0.99 0.495 2 1 C1.443125 1.60585938 0.88625 2.21171875 0.3125 2.8359375 C-10.07305517 14.05123635 -10.07305517 14.05123635 -18 27 C-20.0625 29.375 -20.0625 29.375 -22 31 C-22.66 31 -23.32 31 -24 31 C-24.226875 31.7425 -24.45375 32.485 -24.6875 33.25 C-26 36 -26 36 -28.3125 37.8125 C-31.42061222 40.34235879 -32.94837678 42.93065301 -34.88671875 46.390625 C-35.25410156 46.92171875 -35.62148438 47.4528125 -36 48 C-36.66 48 -37.32 48 -38 48 C-38.268125 48.78375 -38.53625 49.5675 -38.8125 50.375 C-40 53 -40 53 -43 55 C-43.12375 55.639375 -43.2475 56.27875 -43.375 56.9375 C-44.29021538 59.95771075 -46.34667733 60.44683551 -49 62 C-50.32793606 64.06700655 -50.32793606 64.06700655 -51 66 C-51.66 66 -52.32 66 -53 66 C-53.0825 66.721875 -53.165 67.44375 -53.25 68.1875 C-54.46499234 72.74372126 -56.85736683 75.24690086 -60.75 77.8125 C-61.86375 78.4003125 -61.86375 78.4003125 -63 79 C-63.33 78.01 -63.66 77.02 -64 76 C-63.04711914 74.44116211 -63.04711914 74.44116211 -61.53515625 72.77734375 C-60.71217041 71.85381104 -60.71217041 71.85381104 -59.87255859 70.91162109 C-59.27523926 70.26016113 -58.67791992 69.60870117 -58.0625 68.9375 C-56.84622615 67.57549449 -55.63137906 66.21221351 -54.41796875 64.84765625 C-53.8254834 64.18523926 -53.23299805 63.52282227 -52.62255859 62.84033203 C-50.62786337 60.57791666 -48.73846497 58.24632755 -46.875 55.875 C-43.37398993 51.42856949 -39.73091003 47.11863099 -36.06152344 42.81152344 C-33.35575306 39.62705422 -30.71052717 36.4087286 -28.125 33.125 C-24.19182816 28.15805814 -20.03817933 23.39792705 -15.87231445 18.62670898 C-11.71435791 13.85451577 -7.67838197 9.00340916 -3.70703125 4.07421875 C-2 2 -2 2 0 0 Z " fill="#14546D" transform="translate(528,327)"/>
<path d="M0 0 C0.99 0.33 1.98 0.66 3 1 C-3.95628234 18.73928329 -11.48104717 36.00097375 -21.5 52.25 C-21.92144287 52.93626465 -22.34288574 53.6225293 -22.77709961 54.32958984 C-23.79223414 55.92560345 -24.88849253 57.46953971 -26 59 C-26.66 59 -27.32 59 -28 59 C-29.35712166 60.55855981 -29.35712166 60.55855981 -30.625 62.5 C-31.29402344 63.47453125 -31.29402344 63.47453125 -31.9765625 64.46875 C-32.48316406 65.22671875 -32.48316406 65.22671875 -33 66 C-33 63 -33 63 -32 60 C-31.34 60 -30.68 60 -30 60 C-29.7525 59.484375 -29.505 58.96875 -29.25 58.4375 C-28.22875962 56.44608125 -27.12547994 54.49691864 -26 52.5625 C-24.39670789 49.78665097 -23.09809523 47.01976188 -22 44 C-21.34 44 -20.68 44 -20 44 C-19.34 41.69 -18.68 39.38 -18 37 C-17.34 37 -16.68 37 -16 37 C-15.7421875 36.18144531 -15.484375 35.36289062 -15.21875 34.51953125 C-13.82231782 30.48688576 -12.20125466 26.59896208 -10.5 22.6875 C-10.19191406 21.95982422 -9.88382813 21.23214844 -9.56640625 20.48242188 C-7.23683966 15.11841983 -7.23683966 15.11841983 -5 14 C-4.87625 13.34 -4.7525 12.68 -4.625 12 C-3.73206104 7.71389298 -1.85041624 3.95042351 0 0 Z " fill="#1AA0AD" transform="translate(600,548)"/>
<path d="M0 0 C0.495 1.485 0.495 1.485 1 3 C1.639375 3.309375 2.27875 3.61875 2.9375 3.9375 C5.59104179 5.30447607 6.08251209 6.17107896 7 9 C8.07761773 16.23543336 4.76532346 22.43235678 2 29 C1.67 29 1.34 29 1 29 C1.41951253 25.50406223 1.88422728 22.32688767 3.0625 19 C4.17051034 15.45436693 4.34221986 12.69597449 4 9 C2.23984869 5.8149643 1.50109084 5.16703028 -2 4 C-10.24890976 3.26419074 -17.52299145 5.14253821 -25.40820312 7.31054688 C-30.72863664 8.69424936 -34.61475194 9.23028239 -40 8 C-39.67 7.34 -39.34 6.68 -39 6 C-37.5459375 6.0309375 -37.5459375 6.0309375 -36.0625 6.0625 C-33.12534105 6.35618499 -33.12534105 6.35618499 -32 5 C-28.90573033 4.42432192 -25.79948781 3.96973401 -22.6875 3.5 C-20.09043376 3.27904792 -20.09043376 3.27904792 -19 2 C-12.64462582 0.46979567 -6.52264091 -0.24613739 0 0 Z " fill="#174E63" transform="translate(465,496)"/>
<path d="M0 0 C0.99 0.33 1.98 0.66 3 1 C2.56171875 1.34289062 2.1234375 1.68578125 1.671875 2.0390625 C-7.99545001 10.01657054 -15.644253 20.24877705 -23.5078125 29.94140625 C-25.49138688 32.37579298 -27.48705514 34.7982784 -29.4921875 37.21484375 C-30.11174316 37.9627417 -30.73129883 38.71063965 -31.36962891 39.48120117 C-32.59150404 40.95547871 -33.81504509 42.42837769 -35.04052734 43.8996582 C-37.76611237 47.19342703 -40.37658693 50.4897295 -42.796875 54.015625 C-43.52390625 55.00046875 -44.2509375 55.9853125 -45 57 C-45.66 57 -46.32 57 -47 57 C-47.226875 57.5775 -47.45375 58.155 -47.6875 58.75 C-49.33038023 61.5663661 -51.39533227 63.08077114 -54 65 C-52.27783652 61.00458074 -49.6224162 57.75492175 -46.9375 54.375 C-46.44507813 53.75109375 -45.95265625 53.1271875 -45.4453125 52.484375 C-41.90148816 48.03399095 -38.16676573 43.80963137 -34.3125 39.625 C-31.57229806 36.5145005 -29.03549315 33.27774892 -26.5 30 C-22.59444553 24.95335263 -18.53175607 20.15157178 -14.203125 15.45703125 C-10.96381584 11.84439745 -7.95863983 8.05176065 -4.9453125 4.25 C-3 2 -3 2 0 0 Z " fill="#134559" transform="translate(584,261)"/>
<path d="M0 0 C1.17949219 0.01804687 2.35898437 0.03609375 3.57421875 0.0546875 C4.92966797 0.08949219 4.92966797 0.08949219 6.3125 0.125 C6.3125 0.785 6.3125 1.445 6.3125 2.125 C7.53324219 2.04121094 8.75398437 1.95742188 10.01171875 1.87109375 C19.5814369 1.26245695 28.76385816 1.01070607 38.3125 2.125 C34.68690859 4.40151284 31.65716024 4.36724698 27.43261719 4.35205078 C26.74928314 4.35234283 26.0659491 4.35263489 25.36190796 4.35293579 C23.11093294 4.35154624 20.86029196 4.33600302 18.609375 4.3203125 C17.04567648 4.31658103 15.48197562 4.31373469 13.91827393 4.31173706 C9.80828362 4.30411114 5.6984353 4.28447164 1.58850098 4.2623291 C-2.60764648 4.24184822 -6.80381694 4.23273055 -11 4.22265625 C-19.22923173 4.20122472 -27.45834819 4.16710139 -35.6875 4.125 C-35.6875 3.795 -35.6875 3.465 -35.6875 3.125 C-34.52963989 3.095271 -34.52963989 3.095271 -33.34838867 3.06494141 C-29.85691042 2.96978857 -26.36603848 2.86006953 -22.875 2.75 C-21.66005859 2.7190625 -20.44511719 2.688125 -19.19335938 2.65625 C-18.02998047 2.61757813 -16.86660156 2.57890625 -15.66796875 2.5390625 C-14.59442139 2.5076416 -13.52087402 2.4762207 -12.41479492 2.44384766 C-7.72234676 1.89525422 -5.12382389 -0.10146186 0 0 Z " fill="#21B6BD" transform="translate(673.6875,495.875)"/>
<path d="M0 0 C2.53063097 4.18104247 2.67409477 8.15300373 1.7565918 12.8918457 C1.38703369 14.09929443 1.01747559 15.30674316 0.63671875 16.55078125 C0.44028275 17.20201462 0.24384674 17.85324799 0.04145813 18.5242157 C-0.37310304 19.88840536 -0.79449388 21.25053674 -1.22241211 22.6105957 C-1.87728935 24.694786 -2.50955034 26.78486075 -3.13867188 28.87695312 C-6.25980872 39.07230872 -6.25980872 39.07230872 -8.5625 41.375 C-7.78785585 33.69402141 -5.295109 26.52137635 -3.00195312 19.1796875 C-0.53171525 11.40047621 -0.53171525 11.40047621 -0.5625 3.375 C-2.7677725 1.18449997 -4.11887856 0.43185887 -7.21972656 0.03442383 C-8.69650879 0.0579895 -8.69650879 0.0579895 -10.203125 0.08203125 C-11.27304687 0.09169922 -12.34296875 0.10136719 -13.4453125 0.11132812 C-14.55648438 0.13646484 -15.66765625 0.16160156 -16.8125 0.1875 C-17.93914062 0.20103516 -19.06578125 0.21457031 -20.2265625 0.22851562 C-23.00569264 0.26384355 -25.78385363 0.3131748 -28.5625 0.375 C-28.5625 -0.285 -28.5625 -0.945 -28.5625 -1.625 C-5.49590671 -3.48520914 -5.49590671 -3.48520914 0 0 Z " fill="#175165" transform="translate(404.5625,619.625)"/>
<path d="M0 0 C3.04955107 3.84824302 5.2159143 8.01350419 7.5 12.34375 C8.85373101 14.74098199 10.32925039 16.82036979 12 19 C15.37796552 24.37763072 16.93891407 28.6362491 16 35 C13.46546343 38.21954645 11.88702695 39.70432435 8 41 C5.73828125 40.87890625 5.73828125 40.87890625 3.3125 40.5625 C2.50425781 40.46066406 1.69601562 40.35882813 0.86328125 40.25390625 C0.24839844 40.17011719 -0.36648438 40.08632813 -1 40 C-1 39.67 -1 39.34 -1 39 C4.94 38.505 4.94 38.505 11 38 C12.34184567 30.06074646 11.76484759 25.98465022 8 19 C6.94217489 16.94238507 5.89621477 14.87917139 4.85522461 12.81298828 C4.12612383 11.36960387 3.3888094 9.9303353 2.64282227 8.49560547 C0 3.33233116 0 3.33233116 0 0 Z " fill="#19C9CE" transform="translate(704,458)"/>
<path d="M0 0 C0.75368362 0.01175262 1.50736725 0.02350525 2.28388977 0.03561401 C3.86291227 0.06412018 5.44187347 0.09623552 7.02075195 0.13183594 C8.6292967 0.16384028 10.23809423 0.18492981 11.84692383 0.1953125 C14.19068294 0.21056421 16.53186545 0.257908 18.875 0.3125 C19.94701912 0.31130661 19.94701912 0.31130661 21.04069519 0.31008911 C24.9568545 0.44287199 26.64322957 0.97866779 29.74145508 3.45654297 C31.73828125 6.0546875 31.73828125 6.0546875 31.55078125 8.3671875 C31.28265625 8.9240625 31.01453125 9.4809375 30.73828125 10.0546875 C29.74828125 8.0746875 28.75828125 6.0946875 27.73828125 4.0546875 C12.88828125 4.0546875 -1.96171875 4.0546875 -17.26171875 4.0546875 C-16.93171875 3.0646875 -16.60171875 2.0746875 -16.26171875 1.0546875 C-10.78563911 0.27408998 -5.5267228 -0.08852182 0 0 Z " fill="#133F54" transform="translate(313.26171875,700.9453125)"/>
<path d="M0 0 C0.99 0.33 1.98 0.66 3 1 C-0.58612546 6.41535949 -3.76039514 11.07029636 -9 15 C-10.03357147 16.64605826 -11.04060332 18.30963442 -12 20 C-12.66 20.33 -13.32 20.66 -14 21 C-14.6496875 22.11375 -14.6496875 22.11375 -15.3125 23.25 C-18.74229488 28.83929536 -24.02247354 32.82576311 -29 37 C-27.34167543 33.0543312 -24.65279232 30.06591674 -21.875 26.875 C-20.87526647 25.71052372 -19.87657629 24.54515092 -18.87890625 23.37890625 C-18.38793457 22.80543457 -17.89696289 22.23196289 -17.39111328 21.64111328 C-14.16655608 17.83706388 -11.09413902 13.91003775 -8 10 C-6.50094414 8.12424508 -5.00096151 6.24923039 -3.5 4.375 C-2.8296875 3.53710938 -2.159375 2.69921875 -1.46875 1.8359375 C-0.9840625 1.23007812 -0.499375 0.62421875 0 0 Z " fill="#134056" transform="translate(426,448)"/>
<path d="M0 0 C0.144375 0.61875 0.28875 1.2375 0.4375 1.875 C0.93152225 4.03258322 0.93152225 4.03258322 2 6 C2.33 6.66 2.66 7.32 3 8 C2.67 8.99 2.34 9.98 2 11 C2.56960449 10.98839844 3.13920898 10.97679687 3.72607422 10.96484375 C10.90397191 10.88485126 17.97681904 11.38492396 25.125 12 C26.27226562 12.09539063 27.41953125 12.19078125 28.6015625 12.2890625 C31.40137049 12.52237983 34.20080753 12.7594294 37 13 C37 13.33 37 13.66 37 14 C29.68595519 14.92093084 22.5512403 15.1241311 15.1875 14.875 C14.17751953 14.8646875 13.16753906 14.854375 12.12695312 14.84375 C7.36372178 14.68025955 4.76549914 14.55176199 0.82421875 11.7109375 C-1.87468813 7.70014227 -1.47228572 5.72285721 -1 1 C-0.67 0.67 -0.34 0.34 0 0 Z " fill="#163F53" transform="translate(283,741)"/>
<path d="M0 0 C1.27653495 3.82960484 0.47301868 5.43914469 -0.75 9.25 C-1.09546875 10.34828125 -1.4409375 11.4465625 -1.796875 12.578125 C-2.59881995 14.85898141 -3.48148583 17.11302822 -4.44140625 19.33203125 C-6.26916137 23.63343991 -7.73847292 27.99739479 -9.1875 32.4375 C-9.46013672 33.26443359 -9.73277344 34.09136719 -10.01367188 34.94335938 C-10.67855197 36.96132879 -11.33966791 38.98053778 -12 41 C-12.33 41 -12.66 41 -13 41 C-12.45568515 35.46421037 -11.39313403 30.50770747 -9.53125 25.25390625 C-9.29088013 24.55732407 -9.05051025 23.86074188 -8.80285645 23.14305115 C-8.29885754 21.6872645 -7.79112576 20.23276517 -7.27978516 18.77954102 C-6.49442474 16.54664875 -5.72092156 14.30991054 -4.94921875 12.07226562 C-4.45640641 10.65341042 -3.96294068 9.23478196 -3.46875 7.81640625 C-3.23643677 7.14670303 -3.00412354 6.47699982 -2.76477051 5.78700256 C-1.11688537 1.11688537 -1.11688537 1.11688537 0 0 Z " fill="#16556A" transform="translate(432,624)"/>
<path d="M0 0 C5.65478831 3.80180683 8.96324211 10.06160132 11.07421875 16.39453125 C10.57921875 17.87953125 10.57921875 17.87953125 10.07421875 19.39453125 C9.3471875 17.83992188 9.3471875 17.83992188 8.60546875 16.25390625 C4.34984215 6.61364214 4.34984215 6.61364214 -3.859375 0.76171875 C-10.28545373 -0.38015535 -16.52047721 0.46285066 -22.92578125 1.39453125 C-15.85265128 -4.21519252 -7.92950418 -3.91631707 0 0 Z " fill="#19596E" transform="translate(607.92578125,259.60546875)"/>
<path d="M0 0 C0.33 0 0.66 0 1 0 C0.89300781 1.20398438 0.78601563 2.40796875 0.67578125 3.6484375 C0.55387082 5.22389535 0.43282162 6.79942001 0.3125 8.375 C0.23966797 9.1690625 0.16683594 9.963125 0.09179688 10.78125 C-0.12839777 13.35167167 -0.12839777 13.35167167 0 17 C3.53564463 19.35709642 5.22025255 19.30009735 9.41796875 19.4140625 C10.67158203 19.45273437 11.92519531 19.49140625 13.21679688 19.53125 C14.52712891 19.5621875 15.83746094 19.593125 17.1875 19.625 C18.5228116 19.66319338 19.85809892 19.70224591 21.19335938 19.7421875 C24.46209888 19.83659153 27.73083064 19.92217017 31 20 C31 20.33 31 20.66 31 21 C7.44152177 24.10417595 7.44152177 24.10417595 -1 19 C-3.36281649 16.63718351 -3.29567658 16.09388178 -3.3125 12.875 C-3.22634465 8.04246792 -1.92272098 4.40623557 0 0 Z " fill="#1D7A8A" transform="translate(361,734)"/>
<path d="M0 0 C5.071697 3.33079926 6.92736124 7.19933219 9.3125 12.5625 C9.67150391 13.33013672 10.03050781 14.09777344 10.40039062 14.88867188 C13 20.5681994 13 20.5681994 13 24 C10 23 10 23 8.8125 21.1875 C8 19 8 19 8 15 C7.34 15 6.68 15 6 15 C4.99539469 12.87717331 3.99644398 10.75166979 3 8.625 C2.443125 7.44164062 1.88625 6.25828125 1.3125 5.0390625 C0 2 0 2 0 0 Z " fill="#1AAFBA" transform="translate(672,393)"/>
<path d="M0 0 C0.66 0 1.32 0 2 0 C0.76574159 4.08254706 -0.81593771 7.35989618 -3 11 C-3.309375 11.99 -3.61875 12.98 -3.9375 14 C-5.1280375 17.36151765 -6.66654741 19.32339262 -9 22 C-10.0209375 23.3303125 -10.0209375 23.3303125 -11.0625 24.6875 C-13 27 -13 27 -16 29 C-15.34 27.02 -14.68 25.04 -14 23 C-13.34 23 -12.68 23 -12 23 C-11.7525 22.484375 -11.505 21.96875 -11.25 21.4375 C-10.22875962 19.44608125 -9.12547994 17.49691864 -8 15.5625 C-6.39670789 12.78665097 -5.09809523 10.01976188 -4 7 C-3.34 7 -2.68 7 -2 7 C-1.34 4.69 -0.68 2.38 0 0 Z " fill="#18A7B6" transform="translate(582,585)"/>
<path d="M0 0 C1.48728215 4.46184646 -0.57675188 7.9714148 -2.17382812 12.19921875 C-4.12223961 17.6242076 -4.87332861 22.38001416 -3 28 C-0.99983534 29.20882096 -0.99983534 29.20882096 1 30 C-1.86244896 29.69054606 -3.60606886 29.31514492 -5.875 27.5 C-9.3939726 19.68006089 -3.84964055 8.5476966 -1 1 C-0.67 0.67 -0.34 0.34 0 0 Z " fill="#185B6F" transform="translate(418,666)"/>
<path d="M0 0 C0.66 0.33 1.32 0.66 2 1 C1.5875 1.46148437 1.175 1.92296875 0.75 2.3984375 C-2.58638958 6.16677037 -5.81651286 9.98836974 -8.9375 13.9375 C-12.78153565 18.78956066 -16.83906536 23.41854537 -21 28 C-21.66 27.67 -22.32 27.34 -23 27 C-22.47792969 26.44054687 -21.95585938 25.88109375 -21.41796875 25.3046875 C-16.22639729 19.64942052 -11.39943119 13.81806612 -6.71948242 7.73583984 C-4.60988459 5.00241755 -2.54091226 2.34739907 0 0 Z " fill="#156D89" transform="translate(574,274)"/>
<path d="M0 0 C0.66 0.33 1.32 0.66 2 1 C1.443125 1.60585938 0.88625 2.21171875 0.3125 2.8359375 C-4.36566131 7.97243218 -8.83594973 13.2044713 -13.13671875 18.66015625 C-15.6754123 21.84815927 -18.32607734 24.92498895 -21 28 C-21.66 27.67 -22.32 27.34 -23 27 C-22.23816406 26.11699219 -21.47632813 25.23398437 -20.69140625 24.32421875 C-14.95060588 17.65615878 -9.27121766 10.95484091 -3.7421875 4.109375 C-2 2 -2 2 0 0 Z " fill="#123F52" transform="translate(528,327)"/>
<path d="M0 0 C0 0.33 0 0.66 0 1 C-3.93697015 1.19990833 -7.87456912 1.38259453 -11.8125 1.5625 C-12.91271484 1.61857422 -14.01292969 1.67464844 -15.14648438 1.73242188 C-22.19771451 2.04442321 -28.99143042 1.8446925 -36 1 C-36 0.67 -36 0.34 -36 0 C-24.53777263 -2.71985056 -11.67225943 -0.85893105 0 0 Z " fill="#0E3648" transform="translate(389,668)"/>
<path d="M0 0 C-2.8854699 2.8854699 -6.3300522 3.28427681 -10.1875 4.1875 C-10.93064453 4.37763672 -11.67378906 4.56777344 -12.43945312 4.76367188 C-17.34431027 5.92862918 -21.0593744 6.02738837 -26 5 C-25.67 4.34 -25.34 3.68 -25 3 C-23.5459375 3.0309375 -23.5459375 3.0309375 -22.0625 3.0625 C-19.12534105 3.35618499 -19.12534105 3.35618499 -18 2 C-16.11370887 1.59809971 -14.21507944 1.25342647 -12.3125 0.9375 C-11.27738281 0.76089844 -10.24226563 0.58429688 -9.17578125 0.40234375 C-6.07778231 0.00985434 -3.11875137 -0.07013684 0 0 Z " fill="#144B61" transform="translate(451,499)"/>
<path d="M0 0 C0.99 0 1.98 0 3 0 C5.64 5.94 8.28 11.88 11 18 C10.34 18.66 9.68 19.32 9 20 C7.68253667 17.41909233 6.37090383 14.83549542 5.0625 12.25 C4.68931641 11.52039063 4.31613281 10.79078125 3.93164062 10.0390625 C3.57392578 9.33007812 3.21621094 8.62109375 2.84765625 7.890625 C2.51773682 7.24125977 2.18781738 6.59189453 1.84790039 5.92285156 C0.98547884 3.96706921 0.45625821 2.08459306 0 0 Z " fill="#19A1AF" transform="translate(661,370)"/>
<path d="M0 0 C0.40863281 0.47953125 0.81726563 0.9590625 1.23828125 1.453125 C-1.76171875 1.453125 -1.76171875 1.453125 -3.76171875 0.453125 C-5.57513717 0.36841136 -7.39166036 0.34591417 -9.20703125 0.35546875 C-10.28339844 0.35869141 -11.35976563 0.36191406 -12.46875 0.36523438 C-14.16064453 0.37780273 -14.16064453 0.37780273 -15.88671875 0.390625 C-17.02238281 0.39513672 -18.15804688 0.39964844 -19.328125 0.40429688 C-22.13937513 0.41610885 -24.95052105 0.43257993 -27.76171875 0.453125 C-27.76171875 -0.206875 -27.76171875 -0.866875 -27.76171875 -1.546875 C-3.94883406 -3.46726893 -3.94883406 -3.46726893 0 0 Z " fill="#11425A" transform="translate(403.76171875,619.546875)"/>
<path d="M0 0 C0.33 0 0.66 0 1 0 C0.48128186 7.65109262 -1.17993891 14.84875074 -4 22 C-4.66 22.33 -5.32 22.66 -6 23 C-4.52173913 4.52173913 -4.52173913 4.52173913 0 0 Z " fill="#12374C" transform="translate(354,632)"/>
<path d="M0 0 C-0.9991127 2.15193504 -1.97501143 3.9692601 -3.4765625 5.81640625 C-5.17858013 8.25596485 -5.82083036 10.31829802 -6.5625 13.1875 C-7.25390625 15.85546875 -7.25390625 15.85546875 -8 18 C-8.66 18.33 -9.32 18.66 -10 19 C-9.54810561 16.91526053 -9.08823175 14.83224964 -8.625 12.75 C-8.24214844 11.00976562 -8.24214844 11.00976562 -7.8515625 9.234375 C-7 6 -7 6 -5.8359375 3.703125 C-5.56007813 3.14109375 -5.28421875 2.5790625 -5 2 C-5.33 1.34 -5.66 0.68 -6 0 C-3 -1 -3 -1 0 0 Z " fill="#1C8FA5" transform="translate(376,704)"/>
<path d="M0 0 C0.66 0 1.32 0 2 0 C0.91391875 4.67014939 -0.58045228 6.81636695 -4.40234375 9.69921875 C-7.00266615 11.81635165 -8.92528829 14.3760999 -11 17 C-11.66 16.67 -12.32 16.34 -13 16 C-12.14535156 15.01257813 -11.29070312 14.02515625 -10.41015625 13.0078125 C-9.2941626 11.71363499 -8.17828309 10.41935905 -7.0625 9.125 C-6.49853516 8.47402344 -5.93457031 7.82304687 -5.35351562 7.15234375 C-4.54624023 6.21455078 -4.54624023 6.21455078 -3.72265625 5.2578125 C-3.22515869 4.6817627 -2.72766113 4.10571289 -2.21508789 3.51220703 C-0.91115852 1.9986699 -0.91115852 1.9986699 0 0 Z " fill="#10384C" transform="translate(463,404)"/>
<path d="M0 0 C2 2 2 2 2.4375 4.8125 C2.32202977 10.84261218 -0.69808188 16.53294447 -3 22 C-3.33 22 -3.66 22 -4 22 C-3.58761679 18.56347324 -3.13960129 15.4013537 -2 12.125 C-0.71721383 8.11629322 -0.35292468 4.17937118 0 0 Z " fill="#164E62" transform="translate(470,503)"/>
<path d="M0 0 C0 3 0 3 -1.875 5.1875 C-4 7 -4 7 -6 7 C-6.4021875 8.2065625 -6.4021875 8.2065625 -6.8125 9.4375 C-7.204375 10.283125 -7.59625 11.12875 -8 12 C-8.99 12.33 -9.98 12.66 -11 13 C-11 9.36510457 -9.77022441 8.09960951 -7.44140625 5.42578125 C-5.51232304 3.51760951 -3.38997848 2.26137753 -1 1 C-0.67 0.67 -0.34 0.34 0 0 Z " fill="#145169" transform="translate(510,351)"/>
<path d="M0 0 C2.39824692 3.02823416 4.24959666 6.15461265 6.0625 9.5625 C7.61889009 12.48122645 9.16350442 15.24525663 11 18 C10.34 18.99 9.68 19.98 9 21 C7.67997444 18.44113496 6.36886218 15.87832932 5.0625 13.3125 C4.68931641 12.59126953 4.31613281 11.87003906 3.93164062 11.12695312 C2.06034761 7.43494258 0.51730444 4.16306904 0 0 Z " fill="#15DCE1" transform="translate(704,458)"/>
<path d="M0 0 C2.11236308 3.75350671 2.09875095 5.78812136 1 10 C0.34 10.66 -0.32 11.32 -1 12 C-2.03842565 14.31648799 -3.0421975 16.64903024 -4 19 C-5.27182008 16.45635984 -4.82067275 15.75536947 -4.00390625 13.0859375 C-3.66069336 11.94511719 -3.66069336 11.94511719 -3.31054688 10.78125 C-3.06369141 9.9871875 -2.81683594 9.193125 -2.5625 8.375 C-2.31951172 7.57320312 -2.07652344 6.77140625 -1.82617188 5.9453125 C-1.22395927 3.96155332 -0.61281311 1.98051018 0 0 Z " fill="#1B738B" transform="translate(336,732)"/>
<path d="M0 0 C1.25955231 3.77865693 0.48087189 5.03411786 -0.9375 8.6875 C-1.31777344 9.68136719 -1.69804687 10.67523437 -2.08984375 11.69921875 C-2.39019531 12.45847656 -2.69054687 13.21773437 -3 14 C-5 11 -5 11 -4.75 8.5 C-3.76700505 5.22335016 -1.89097587 2.8364638 0 0 Z " fill="#17627A" transform="translate(450,574)"/>
<path d="M0 0 C-3.20093937 3.20093937 -7.66157218 3.85960658 -12.08203125 4.125 C-13.7218836 4.125 -15.36156928 4.06826795 -17 4 C-11.31040589 0.9363724 -6.48909466 -0.25956379 0 0 Z " fill="#163E52" transform="translate(429,504)"/>
<path d="M0 0 C0.96066886 2.88200659 1.07718954 4.14505991 0.75 7.0625 C0.68296875 7.75472656 0.6159375 8.44695313 0.546875 9.16015625 C0 11 0 11 -3 13 C-2.88490339 11.58249437 -2.75746342 10.16598831 -2.625 8.75 C-2.55539062 7.96109375 -2.48578125 7.1721875 -2.4140625 6.359375 C-1.98492887 3.914123 -1.21399362 2.15163097 0 0 Z " fill="#134258" transform="translate(291,713)"/>
<path d="M0 0 C0.66 0.33 1.32 0.66 2 1 C1.65120368 4.25543229 0.97866739 5.01873107 -1.5625 7.25 C-2.7690625 8.11625 -2.7690625 8.11625 -4 9 C-4.66 8.34 -5.32 7.68 -6 7 C-4.71937515 5.2925002 -3.38232443 3.62626404 -2 2 C-1.34 2 -0.68 2 0 2 C0 1.34 0 0.68 0 0 Z " fill="#1C9DAC" transform="translate(539,644)"/>
<path d="M0 0 C2.64 0 5.28 0 8 0 C8.33 0.99 8.66 1.98 9 3 C10.31647119 3.69937532 11.65022151 4.36729133 13 5 C13.33 5.66 13.66 6.32 14 7 C13.34 7.66 12.68 8.32 12 9 C11.566875 8.38125 11.13375 7.7625 10.6875 7.125 C9.00259517 4.7802755 9.00259517 4.7802755 6 3 C6 2.67 6 2.34 6 2 C3.03 1.505 3.03 1.505 0 1 C0 0.67 0 0.34 0 0 Z " fill="#1A5F76" transform="translate(457,496)"/>
<path d="M0 0 C0.66 0 1.32 0 2 0 C2.103125 1.2375 2.20625 2.475 2.3125 3.75 C2.73801682 7.2792866 3.48112592 9.37160966 6 12 C4.125 11.6875 4.125 11.6875 2 11 C-0.67927341 6.98108988 -0.15601248 4.75838077 0 0 Z " fill="#153D51" transform="translate(346,656)"/>
<path d="M0 0 C0.66 0 1.32 0 2 0 C0.56951306 3.18283344 -1.19017243 5.57915658 -3.5 8.1875 C-4.1084375 8.88230469 -4.716875 9.57710938 -5.34375 10.29296875 C-7 12 -7 12 -9 13 C-7.51516897 9.76306836 -5.67292565 7.0674375 -3.5 4.25 C-2.8915625 3.45078125 -2.283125 2.6515625 -1.65625 1.828125 C-1.1096875 1.22484375 -0.563125 0.6215625 0 0 Z " fill="#113040" transform="translate(406,472)"/>
<path d="M0 0 C1.16835309 3.50505927 0.75193262 4.66433282 -0.3125 8.125 C-0.57675781 9.01445313 -0.84101563 9.90390625 -1.11328125 10.8203125 C-2 13 -2 13 -4 14 C-3.53328373 8.58609132 -2.75702189 4.79482068 0 0 Z " fill="#154D62" transform="translate(432,624)"/>
<path d="M0 0 C0 0.66 0 1.32 0 2 C-5.94 2.495 -5.94 2.495 -12 3 C-11.67 2.01 -11.34 1.02 -11 0 C-3.375 -1.125 -3.375 -1.125 0 0 Z " fill="#143D53" transform="translate(308,702)"/>
<path d="M0 0 C0.66 0 1.32 0 2 0 C0.53967505 5.31027254 -1.98320986 9.46330032 -5 14 C-5.33 13.34 -5.66 12.68 -6 12 C-5.0625 9.375 -5.0625 9.375 -4 7 C-3.34 7 -2.68 7 -2 7 C-1.34 4.69 -0.68 2.38 0 0 Z " fill="#16B8C7" transform="translate(582,585)"/>
<path d="M0 0 C0.66 0.33 1.32 0.66 2 1 C0.54540569 2.64913882 -0.91379257 4.29421782 -2.375 5.9375 C-3.18710937 6.85402344 -3.99921875 7.77054687 -4.8359375 8.71484375 C-7 11 -7 11 -9 12 C-7.55575365 8.76138697 -5.74227753 6.38030837 -3.375 3.75 C-2.74335937 3.04359375 -2.11171875 2.3371875 -1.4609375 1.609375 C-0.97882812 1.07828125 -0.49671875 0.5471875 0 0 Z " fill="#156B86" transform="translate(550,303)"/>
<path d="M0 0 C0.66 0 1.32 0 2 0 C0.63629701 2.99220268 -0.94908083 5.29026529 -3.125 7.75 C-3.93324219 8.67039062 -3.93324219 8.67039062 -4.7578125 9.609375 C-5.16773438 10.06828125 -5.57765625 10.5271875 -6 11 C-6 7.43770549 -5.23890991 6.58890321 -3.125 3.8125 C-2.59132813 3.09707031 -2.05765625 2.38164062 -1.5078125 1.64453125 C-0.76144531 0.83048828 -0.76144531 0.83048828 0 0 Z " fill="#113E51" transform="translate(497,363)"/>
<path d="M0 0 C0.99 0.33 1.98 0.66 3 1 C0.36 3.97 -2.28 6.94 -5 10 C-5.33 9.34 -5.66 8.68 -6 8 C-4.02 5.36 -2.04 2.72 0 0 Z " fill="#103344" transform="translate(426,448)"/>
<path d="M0 0 C0.66 0.33 1.32 0.66 2 1 C-0.64 3.97 -3.28 6.94 -6 10 C-6.66 9.67 -7.32 9.34 -8 9 C-5.36 6.03 -2.72 3.06 0 0 Z " fill="#113A4E" transform="translate(473,393)"/>
<path d="M0 0 C0.66 0.33 1.32 0.66 2 1 C-0.64 3.97 -3.28 6.94 -6 10 C-6 6.41087588 -5.33563446 5.89142971 -3 3.3125 C-2.443125 2.68988281 -1.88625 2.06726563 -1.3125 1.42578125 C-0.879375 0.95527344 -0.44625 0.48476563 0 0 Z " fill="#10374A" transform="translate(447,424)"/>
<path d="M0 0 C0 0.99 0 1.98 0 3 C-0.99 3.33 -1.98 3.66 -3 4 C-3.70211894 5.65204456 -4.36971413 7.31923769 -5 9 C-5.99 9.495 -5.99 9.495 -7 10 C-5.64615385 3.47692308 -5.64615385 3.47692308 -2.375 1.0625 C-1.199375 0.5365625 -1.199375 0.5365625 0 0 Z " fill="#165871" transform="translate(493,371)"/>
<path d="M0 0 C0.66 0 1.32 0 2 0 C1.34 1.98 0.68 3.96 0 6 C-1.65 6.33 -3.3 6.66 -5 7 C-4.21654285 5.82780457 -3.42297164 4.66236332 -2.625 3.5 C-2.18414062 2.8503125 -1.74328125 2.200625 -1.2890625 1.53125 C-0.65097656 0.77328125 -0.65097656 0.77328125 0 0 Z " fill="#124257" transform="translate(463,404)"/>
<path d="M0 0 C0 3.58912412 -0.66436554 4.10857029 -3 6.6875 C-3.556875 7.31011719 -4.11375 7.93273437 -4.6875 8.57421875 C-5.120625 9.04472656 -5.55375 9.51523437 -6 10 C-6 6.41087588 -5.33563446 5.89142971 -3 3.3125 C-2.443125 2.68988281 -1.88625 2.06726563 -1.3125 1.42578125 C-0.879375 0.95527344 -0.44625 0.48476563 0 0 Z " fill="#113D50" transform="translate(487,376)"/>
<path d="M0 0 C0.99 0 1.98 0 3 0 C2.64950425 3.24208567 2.43778819 4.61527704 -0.0625 6.8125 C-0.701875 7.204375 -1.34125 7.59625 -2 8 C-2.33 7.34 -2.66 6.68 -3 6 C-2.06553465 3.96855359 -1.06775224 1.96466413 0 0 Z " fill="#18A8B7" transform="translate(603,539)"/>
<path d="M0 0 C0 0.66 0 1.32 0 2 C1.65 2 3.3 2 5 2 C5 2.33 5 2.66 5 3 C1.7 3.33 -1.6 3.66 -5 4 C-5 3.01 -5 2.02 -5 1 C-2 0 -2 0 0 0 Z " fill="#1EAAB7" transform="translate(629,497)"/>
<path d="M0 0 C0.66 1.32 1.32 2.64 2 4 C0 7 0 7 -3 9 C-2.01 6.03 -1.02 3.06 0 0 Z " fill="#15AABA" transform="translate(607,529)"/>
<path d="M0 0 C2.32947183 2.11770166 3.88750845 4.03335588 5 7 C4.67 7.99 4.34 8.98 4 10 C0 4.5 0 4.5 0 0 Z " fill="#1C95A1" transform="translate(671,388)"/>
<path d="M0 0 C1.65 1.65 3.3 3.3 5 5 C4.34 6.32 3.68 7.64 3 9 C1.68 6.36 0.36 3.72 -1 1 C-0.67 0.67 -0.34 0.34 0 0 Z " fill="#16A1B3" transform="translate(652,351)"/>
<path d="M0 0 C2 1 2 1 2 1 Z " fill="#26758E" transform="translate(367,671)"/>
<path d="" fill="#27697F" transform="translate(0,0)"/>
<path d="" fill="#25677C" transform="translate(0,0)"/>
<path d="M0 0 C2 1 2 1 2 1 Z " fill="#246F88" transform="translate(389,616)"/>
<path d="M0 0 C2 1 2 1 2 1 Z " fill="#21AEBD" transform="translate(669,376)"/>
<path d="" fill="#2CA3B0" transform="translate(0,0)"/>
<path d="" fill="#2B98A6" transform="translate(0,0)"/>
<path d="" fill="#2A96A8" transform="translate(0,0)"/>
<path d="" fill="#2B8FA2" transform="translate(0,0)"/>
<path d="" fill="#28B3BF" transform="translate(0,0)"/>
<path d="" fill="#2A687C" transform="translate(0,0)"/>
<path d="" fill="#2C677D" transform="translate(0,0)"/>
<path d="" fill="#269CAF" transform="translate(0,0)"/>
<path d="" fill="#248EA4" transform="translate(0,0)"/>
<path d="" fill="#287990" transform="translate(0,0)"/>
<path d="" fill="#28768E" transform="translate(0,0)"/>
<path d="" fill="#25788F" transform="translate(0,0)"/>
<path d="" fill="#26738D" transform="translate(0,0)"/>
<path d="" fill="#25718A" transform="translate(0,0)"/>
<path d="" fill="#2AB1BB" transform="translate(0,0)"/>
<path d="" fill="#257089" transform="translate(0,0)"/>
<path d="" fill="#266C86" transform="translate(0,0)"/>
<path d="" fill="#256B82" transform="translate(0,0)"/>
<path d="" fill="#217990" transform="translate(0,0)"/>
<path d="" fill="#20758F" transform="translate(0,0)"/>
<path d="" fill="#23B1C1" transform="translate(0,0)"/>
<path d="" fill="#20758C" transform="translate(0,0)"/>
<path d="" fill="#237891" transform="translate(0,0)"/>
<path d="" fill="#1E768F" transform="translate(0,0)"/>
<path d="" fill="#2D6377" transform="translate(0,0)"/>
<path d="" fill="#1E748E" transform="translate(0,0)"/>
<path d="" fill="#28C5CD" transform="translate(0,0)"/>
<path d="" fill="#27D1D4" transform="translate(0,0)"/>
<path d="" fill="#225B72" transform="translate(0,0)"/>
<path d="" fill="#225F75" transform="translate(0,0)"/>
<path d="" fill="#24CDD3" transform="translate(0,0)"/>
<path d="" fill="#1F5F77" transform="translate(0,0)"/>
<path d="" fill="#1D6178" transform="translate(0,0)"/>
<path d="" fill="#225E73" transform="translate(0,0)"/>
<path d="" fill="#22C9D0" transform="translate(0,0)"/>
<path d="" fill="#1E637D" transform="translate(0,0)"/>
<path d="" fill="#1D637D" transform="translate(0,0)"/>
<path d="" fill="#1D667E" transform="translate(0,0)"/>
<path d="" fill="#1D687D" transform="translate(0,0)"/>
<path d="" fill="#1D687E" transform="translate(0,0)"/>
<path d="" fill="#22677F" transform="translate(0,0)"/>
<path d="" fill="#1E667E" transform="translate(0,0)"/>
<path d="" fill="#1E6A7F" transform="translate(0,0)"/>
<path d="" fill="#279AAC" transform="translate(0,0)"/>
<path d="" fill="#259AA9" transform="translate(0,0)"/>
<path d="" fill="#1E6C86" transform="translate(0,0)"/>
<path d="" fill="#207188" transform="translate(0,0)"/>
<path d="" fill="#227289" transform="translate(0,0)"/>
<path d="" fill="#217D94" transform="translate(0,0)"/>
</svg>
